<svg xmlns="http://www.w3.org/2000/svg" version="1.1" xmlns:xlink="http://www.w3.org/1999/xlink" xmlns:svgjs="http://svgjs.dev/svgjs" width="1000" height="1000" viewBox="0 0 1000 1000"><rect width="1000" height="1000" fill="#000000"></rect><g transform="matrix(0.7,0,0,0.7,150.46110533217666,226.87133603238874)"><svg viewBox="0 0 316 247" data-background-color="#051726" preserveAspectRatio="xMidYMid meet" height="781" width="1000" xmlns="http://www.w3.org/2000/svg" xmlns:xlink="http://www.w3.org/1999/xlink"><g id="tight-bounds" transform="matrix(1,0,0,1,-0.20815612138261486,-0.09999999999999432)"><svg viewBox="0 0 316.41631224276523 247.2" height="247.2" width="316.41631224276523"><g><svg viewBox="0 0 397.4975999999999 310.544693551104" height="247.2" width="316.41631224276523"><g><rect width="397.4975999999999" height="9.511573807104" x="0" y="170.661711872" fill="#ffffff" opacity="1" stroke-width="0" stroke="transparent" fill-opacity="1" class="rect-r$-0" data-fill-palette-color="secondary" rx="1%" id="r$-0" data-palette-color="#81ffd9"></rect></g><g transform="matrix(1,0,0,1,0.9887999999999693,205.07269355110404)"><svg viewBox="0 0 395.52 105.472" height="105.472" width="395.52"><g id="textblocktransform"><svg viewBox="0 0 395.52 105.472" height="105.472" width="395.52" id="textblock"><g><svg viewBox="0 0 395.52 105.472" height="105.472" width="395.52"><g transform="matrix(1,0,0,1,0,0)"><svg width="395.52" viewBox="3 -37.5 187.48 50" height="105.472" data-palette-color="#ffffff"><path d="M10.8 0.5L9.35 0.5Q6.98 0.5 5.59-0.36 4.2-1.23 3.6-2.58 3-3.93 3-5.4L3-5.4 3-37.5 7.5-37.5 7.5-8Q7.5-5.9 7.78-4.85 8.05-3.8 8.89-3.45 9.73-3.1 11.45-3.1L11.45-3.1 10.8 0.5ZM23.65 0.5L23.65 0.5Q20.77 0.5 18.75-0.66 16.72-1.83 15.66-4.2 14.6-6.58 14.6-10.25L14.6-10.25 14.6-24.5 19.1-24.5 19.1-11.5Q19.1-7.6 20.44-5.55 21.77-3.5 24.8-3.5L24.8-3.5Q26.87-3.5 28.65-4.5 30.42-5.5 31.1-7.7L31.1-7.7 30.45-5.25 30.45-24.5 34.95-24.5 34.95 0 30.95 0 30.05-4.8 31.25-4Q30.02-1.73 28.26-0.61 26.5 0.5 23.65 0.5ZM50.75 0.5L50.75 0.5Q47.62 0.5 45.1-1.2 42.57-2.9 41.08-5.78 39.6-8.65 39.6-12.2L39.6-12.2Q39.6-15.58 40.96-18.5 42.32-21.43 44.82-23.21 47.32-25 50.75-25L50.75-25Q53.2-25 55.48-23.94 57.77-22.88 59.2-20.4L59.2-20.4 58.25-19.75 58.25-37.5 62.75-37.5 62.75 0 58.75 0 57.9-5.2 59.05-4.4Q57.97-1.98 55.67-0.74 53.37 0.5 50.75 0.5ZM51.55-3.5L51.55-3.5Q53.25-3.5 54.91-4.38 56.57-5.25 57.66-7.16 58.75-9.08 58.75-12.2L58.75-12.2Q58.75-15.1 57.66-17.06 56.57-19.03 54.91-20.01 53.25-21 51.55-21L51.55-21Q49.25-21 47.6-19.85 45.95-18.7 45.07-16.71 44.2-14.73 44.2-12.2L44.2-12.2Q44.2-9.83 45.07-7.85 45.95-5.88 47.6-4.69 49.25-3.5 51.55-3.5ZM79.49 0.5L79.49 0.5Q75.64 0.5 72.93-1.21 70.22-2.93 68.78-5.81 67.34-8.7 67.34-12.25L67.34-12.25Q67.34-15.8 68.78-18.69 70.22-21.58 72.93-23.29 75.64-25 79.49-25L79.49-25Q83.32-25 86.04-23.29 88.77-21.58 90.21-18.69 91.64-15.8 91.64-12.25L91.64-12.25Q91.64-8.7 90.21-5.81 88.77-2.93 86.04-1.21 83.32 0.5 79.49 0.5ZM79.49-3.5L79.49-3.5Q83.14-3.5 85.09-5.81 87.04-8.13 87.04-12.25L87.04-12.25Q87.04-16.38 85.09-18.69 83.14-21 79.49-21L79.49-21Q75.87-21 73.91-18.69 71.94-16.38 71.94-12.25L71.94-12.25Q71.94-8.13 73.91-5.81 75.87-3.5 79.49-3.5ZM111.99 0L107.49 0 107.49-37.5 111.99-37.5 111.99-13.45 120.99-24.5 126.49-24.5 116.74-13.1 126.74 0 121.24 0 111.99-12.45 111.99 0ZM134.44 0L129.94 0 129.94-24.5 134.44-24.5 134.44 0ZM134.44-30L129.94-30 129.94-35 134.44-35 134.44-30ZM145.03 0L140.53 0 140.53-24.5 144.03-24.5 144.93-19.8 143.18-20.55Q145.66-23.3 148.02-24.15 150.38-25 152.63-25L152.63-25Q158.01-25 160.32-21.9 162.63-18.8 162.63-13.5L162.63-13.5 162.63 0 158.13 0 158.13-13.5Q158.13-17.4 156.68-19.2 155.23-21 151.73-21L151.73-21Q149.26-21 147.2-19.91 145.13-18.82 144.48-16.45L144.48-16.45 145.03-19.2 145.03 0ZM178.38 12.5L178.38 12.5Q175.03 12.5 172.39 11.68 169.75 10.85 168.24 9.22 166.73 7.6 166.73 5.2L166.73 5.2Q166.73 3.2 167.87 1.76 169 0.33 170.98-0.55L170.98-0.55Q169.81-1.13 169.19-1.91 168.58-2.7 168.58-3.65L168.58-3.65Q168.58-4.78 169.27-5.69 169.96-6.6 171.48-7.2L171.48-7.2Q169.43-8.47 168.33-10.64 167.23-12.8 167.23-15.45L167.23-15.45Q167.23-18.13 168.43-20.29 169.63-22.45 171.89-23.73 174.16-25 177.33-25L177.33-25Q179.03-25 180.54-24.5 182.06-24 183.33-23.1L183.33-23.1Q184.46-23.75 185.99-24.18 187.53-24.6 189.43-24.6L189.43-24.6Q189.56-24.6 189.64-24.6 189.73-24.6 189.83-24.6L189.83-24.6 189.28-21.6Q188.98-21.6 188.71-21.6 188.43-21.6 188.13-21.6L188.13-21.6Q187.88-21.6 186.98-21.53 186.08-21.45 185.33-21.25L185.33-21.25Q186.36-20.05 186.92-18.56 187.48-17.07 187.48-15.45L187.48-15.45Q187.48-12.65 186.27-10.44 185.06-8.22 182.78-6.94 180.5-5.65 177.33-5.65L177.33-5.65Q176.43-5.65 175.61-5.76 174.78-5.88 174.03-6.1L174.03-6.1Q172.88-5.73 172.88-4.8L172.88-4.8Q172.88-4.25 173.53-3.84 174.18-3.43 175.63-3.2L175.63-3.2 182.18-2.15Q186.16-1.53 188.32 0.15 190.48 1.83 190.48 4.9L190.48 4.9Q190.48 7.45 188.99 9.14 187.5 10.83 184.78 11.66 182.06 12.5 178.38 12.5ZM178.78 8.5L178.78 8.5Q182.23 8.5 184.08 7.61 185.93 6.73 185.93 5L185.93 5Q185.93 3.65 184.77 2.88 183.61 2.1 181.43 1.7L181.43 1.7 174.46 0.53Q173.08 1.13 172.06 2.14 171.03 3.15 171.03 4.5L171.03 4.5Q171.03 6.6 173.14 7.55 175.25 8.5 178.78 8.5ZM177.33-9.25L177.33-9.25Q180.18-9.25 181.68-10.96 183.18-12.68 183.18-15.4L183.18-15.4Q183.18-18.03 181.68-19.71 180.18-21.4 177.33-21.4L177.33-21.4Q174.48-21.4 173-19.71 171.53-18.03 171.53-15.4L171.53-15.4Q171.53-12.68 173-10.96 174.48-9.25 177.33-9.25Z" opacity="1" transform="matrix(1,0,0,1,0,0)" fill="#ffffff" class="wordmark-text-0" data-fill-palette-color="primary" id="text-0"></path></svg></g></svg></g></svg></g></svg></g><g transform="matrix(1,0,0,1,117.86764799999996,0)"><svg viewBox="0 0 161.762304 145.762304" height="145.762304" width="161.762304"><g><svg xmlns:x="http://ns.adobe.com/Extensibility/1.0/" xmlns:i="http://ns.adobe.com/AdobeIllustrator/10.0/" xmlns:graph="http://ns.adobe.com/Graphs/1.0/" xmlns="http://www.w3.org/2000/svg" xmlns:xlink="http://www.w3.org/1999/xlink" version="1.1" x="8" y="0" viewBox="5 5 66 66" style="enable-background:new 0 0 76 76;" xml:space="preserve" height="145.762304" width="145.762304" class="icon-icon-0" data-fill-palette-color="accent" id="icon-0"><path d="M66.23 5H9.76C7.14 5 5 7.14 5 9.77v56.47C5 68.87 7.14 71 9.76 71h56.47C68.86 71 71 68.87 71 66.24V9.77C71 7.14 68.86 5 66.23 5zM19.175 63.474c-3.665 0-6.647-2.982-6.647-6.647 0-3.665 2.982-6.647 6.647-6.647s6.647 2.982 6.647 6.647C25.822 60.492 22.84 63.474 19.175 63.474zM19.175 25.827c-3.665 0-6.647-2.982-6.647-6.647s2.982-6.647 6.647-6.647 6.647 2.982 6.647 6.647S22.84 25.827 19.175 25.827zM37.999 44.65c-3.665 0-6.647-2.982-6.647-6.647s2.982-6.647 6.647-6.646 6.647 2.982 6.647 6.646S41.664 44.65 37.999 44.65zM56.822 63.474c-3.665 0-6.647-2.982-6.647-6.647 0-3.665 2.982-6.647 6.647-6.647 3.666 0 6.647 2.982 6.648 6.647C63.47 60.492 60.488 63.474 56.822 63.474zM56.822 25.827c-3.665 0-6.647-2.982-6.647-6.647s2.982-6.647 6.647-6.647c3.666 0 6.647 2.982 6.648 6.647S60.488 25.827 56.822 25.827z" fill="#ffffff" data-fill-palette-color="accent"></path></svg><g></g></g></svg></g><g><rect width="16.891488483014456" height="9.511573807104" y="135.25073019289601" x="279.62995199999995" fill="#ffffff" data-fill-palette-color="secondary"></rect><rect width="16.891488483014456" height="9.511573807104" y="135.25073019289601" x="100.9761595169855" fill="#ffffff" data-fill-palette-color="secondary"></rect></g></svg></g><defs></defs></svg><rect width="316.41631224276523" height="247.2" fill="none" stroke="none" visibility="hidden"></rect></g></svg></g></svg>